<svg xmlns="http://www.w3.org/2000/svg" viewBox="0 0 231.86 280.43"><defs><style>.cls-1{fill:#00139e;}.cls-2{fill:#000b57;}.cls-3{fill:#db0000;}</style></defs><g id="Layer_2" data-name="Layer 2"><g id="Layer_1-2" data-name="Layer 1"><path class="cls-1" d="M117.42,16.19a61.7,61.7,0,0,0-17.83,8.46A58.44,58.44,0,0,0,85.73,38a54.13,54.13,0,0,0-4.93,8.07,45.41,45.41,0,0,0-3.29,8.68c2-2.31,4.08-4.51,6.22-6.54A73.34,73.34,0,0,1,90.4,42.6,69.48,69.48,0,0,1,105,34.18a65.47,65.47,0,0,1,15.58-4.48,62.58,62.58,0,0,1,15.81-.44,104.48,104.48,0,0,1,15.49,2.8c2.57.66,5.15,1.43,7.7,2.36a58,58,0,0,1,7.54,3.35c.6.34,1.22.67,1.82,1s1,.61,1.54.93a8.47,8.47,0,0,0-.08,1.13,8,8,0,0,0,8,8,7.91,7.91,0,0,0,2.59-.43,77.57,77.57,0,0,1,5.41,6.11c.45.59.91,1.17,1.35,1.76L189,58.1c.42.62.86,1.24,1.29,1.86s.83,1.27,1.27,1.91c-.13-.76-.26-1.51-.41-2.27s-.34-1.5-.53-2.25-.42-1.48-.64-2.23-.5-1.46-.76-2.2a52.62,52.62,0,0,0-3.87-8.27,8,8,0,0,0-7-11.78,8.1,8.1,0,0,0-1.65.17l-.08-.09c-.54-.59-1.11-1.17-1.67-1.76s-1.16-1.14-1.74-1.71a69.14,69.14,0,0,0-7.63-6.27,55.24,55.24,0,0,0-8.69-5A49.07,49.07,0,0,0,147.33,15a52,52,0,0,0-10-1.3A63.7,63.7,0,0,0,117.42,16.19Z"/><path class="cls-2" d="M56.72,68.08a58.66,58.66,0,0,0,4.66,18.71,54.94,54.94,0,0,0,4.53,8.3,45.37,45.37,0,0,0,5.87,7.19c-1-2.91-1.86-5.79-2.56-8.66A77,77,0,0,1,67.67,85a69.52,69.52,0,0,1,0-16.81,65.57,65.57,0,0,1,3.92-15.73,62.68,62.68,0,0,1,7.52-13.92,103.29,103.29,0,0,1,10.16-12c1.86-1.9,3.82-3.74,5.91-5.49a57.91,57.91,0,0,1,6.66-4.85c.6-.35,1.19-.73,1.8-1.07l1.58-.86a7.58,7.58,0,0,0,.93.63A8,8,0,0,0,118,9.52a79.75,79.75,0,0,1,8-1.62c.73-.1,1.47-.21,2.21-.29l2.23-.25,2.25-.18q1.14-.06,2.28-.15-1.06-.41-2.16-.78t-2.22-.66c-.74-.2-1.49-.38-2.25-.56s-1.52-.3-2.28-.45a53,53,0,0,0-9.1-.79A8,8,0,0,0,103.21,4a8.14,8.14,0,0,0-.68,1.51l-.11,0c-.79.18-1.57.38-2.36.57s-1.57.43-2.36.65a68,68,0,0,0-9.24,3.48,55.54,55.54,0,0,0-8.66,5,51,51,0,0,0-7.58,6.66,52,52,0,0,0-6.13,8,63.4,63.4,0,0,0-7.78,18.47A61.76,61.76,0,0,0,56.72,68.08Z"/><path class="cls-3" d="M44.87,99.73a63.44,63.44,0,0,0,12.1,16,61.67,61.67,0,0,0,16.24,11.2,58.52,58.52,0,0,0,18.53,5.32,55.4,55.4,0,0,0,9.45.23,45.35,45.35,0,0,0,9.17-1.49c-3-.6-5.94-1.28-8.78-2.12a72.72,72.72,0,0,1-8.22-2.95,69.72,69.72,0,0,1-14.58-8.39,65.91,65.91,0,0,1-11.66-11.26,62.55,62.55,0,0,1-8.29-13.47A104.3,104.3,0,0,1,53.51,78a80,80,0,0,1-1.8-7.85,57.12,57.12,0,0,1-.87-8.2c0-.7,0-1.4,0-2.09s0-1.2,0-1.8a8,8,0,0,0,2.27-13.44,78.17,78.17,0,0,1,2.6-7.74c.28-.68.55-1.37.85-2.06l.9-2c.33-.67.64-1.36,1-2.05s.68-1.35,1-2c-.59.48-1.18,1-1.76,1.48L56,31.72c-.54.54-1.08,1.1-1.61,1.67s-1,1.16-1.53,1.75a52.5,52.5,0,0,0-5.23,7.49,7.85,7.85,0,0,0-3.76,1.07A8,8,0,0,0,41,54.61a7.78,7.78,0,0,0,1,1.34.49.49,0,0,1,0,.11c-.24.77-.46,1.55-.69,2.33s-.4,1.58-.61,2.37A68.24,68.24,0,0,0,39,70.5a54.87,54.87,0,0,0,0,10,50,50,0,0,0,2,9.89A51.49,51.49,0,0,0,44.87,99.73Z"/><path class="cls-1" d="M114.44,150.77a61.7,61.7,0,0,0,17.83-8.46,58.44,58.44,0,0,0,13.86-13.39,54.13,54.13,0,0,0,4.93-8.07,45.45,45.45,0,0,0,3.3-8.68c-2,2.31-4.08,4.51-6.23,6.54a73.34,73.34,0,0,1-6.67,5.65,70,70,0,0,1-14.55,8.43,65.78,65.78,0,0,1-15.58,4.47,62.58,62.58,0,0,1-15.81.44A103.17,103.17,0,0,1,80,134.91c-2.57-.66-5.15-1.44-7.7-2.37a58.57,58.57,0,0,1-7.54-3.35c-.6-.34-1.22-.67-1.82-1l-1.54-.94a7,7,0,0,0,.08-1.13,8,8,0,0,0-10.58-7.55,77.73,77.73,0,0,1-5.41-6.12c-.45-.58-.91-1.17-1.35-1.76l-1.33-1.81c-.42-.62-.86-1.24-1.29-1.86s-.83-1.27-1.27-1.91c.13.76.26,1.51.41,2.27s.34,1.5.53,2.25.42,1.48.64,2.23.5,1.46.76,2.2a52.72,52.72,0,0,0,3.87,8.28,7.89,7.89,0,0,0-1,3.78,8,8,0,0,0,8,8,8.1,8.1,0,0,0,1.65-.17l.08.09c.54.6,1.11,1.17,1.67,1.76s1.16,1.14,1.74,1.71a67.24,67.24,0,0,0,7.64,6.27,55.53,55.53,0,0,0,8.68,5A49.72,49.72,0,0,0,84.53,152a52.09,52.09,0,0,0,10,1.3A63.7,63.7,0,0,0,114.44,150.77Z"/><path class="cls-2" d="M175.14,98.88a58.6,58.6,0,0,0-4.66-18.7,54.46,54.46,0,0,0-4.53-8.3,45,45,0,0,0-5.87-7.2c1,2.91,1.86,5.79,2.56,8.66a77.36,77.36,0,0,1,1.55,8.6,69.6,69.6,0,0,1,0,16.82,65.68,65.68,0,0,1-3.92,15.73,62.21,62.21,0,0,1-7.52,13.91,104.22,104.22,0,0,1-10.16,12c-1.86,1.89-3.82,3.74-5.9,5.48a58.92,58.92,0,0,1-6.67,4.85c-.6.36-1.19.73-1.8,1.07l-1.58.86a7.58,7.58,0,0,0-.93-.63,8,8,0,0,0-11.84,5.39,77,77,0,0,1-8,1.62c-.73.1-1.47.21-2.2.29l-2.24.25-2.25.18-2.28.15q1.06.4,2.16.78c.74.23,1.47.45,2.22.66s1.49.39,2.25.56,1.52.3,2.28.45a53,53,0,0,0,9.1.79,8.06,8.06,0,0,0,2.81,2.72A8,8,0,0,0,128.65,163a7.85,7.85,0,0,0,.68-1.51l.11,0c.79-.17,1.57-.38,2.36-.57s1.57-.43,2.36-.65a68,68,0,0,0,9.24-3.48,55.54,55.54,0,0,0,8.66-5,50.44,50.44,0,0,0,7.58-6.66,52,52,0,0,0,6.13-8,63.4,63.4,0,0,0,7.78-18.47A61.73,61.73,0,0,0,175.14,98.88Z"/><path class="cls-3" d="M190.66,108.57c.22-.78.4-1.57.61-2.37a68.24,68.24,0,0,0,1.61-9.74,54.87,54.87,0,0,0,0-10,49.94,49.94,0,0,0-2-9.89,52.25,52.25,0,0,0-3.9-9.33,63.21,63.21,0,0,0-12.1-16,62,62,0,0,0-16.24-11.21,58.52,58.52,0,0,0-18.53-5.32,55.4,55.4,0,0,0-9.45-.23A46.06,46.06,0,0,0,121.5,36c3,.6,5.94,1.28,8.78,2.12a73.59,73.59,0,0,1,8.23,3,69.65,69.65,0,0,1,14.57,8.39,65.57,65.57,0,0,1,11.66,11.26A62.55,62.55,0,0,1,173,74.18,103.51,103.51,0,0,1,178.35,89a80,80,0,0,1,1.8,7.85,57.11,57.11,0,0,1,.87,8.21c0,.69,0,1.39,0,2.08s0,1.2,0,1.8a6.87,6.87,0,0,0-1,.5,8,8,0,0,0-1.25,12.94,78.17,78.17,0,0,1-2.6,7.74c-.28.68-.55,1.37-.85,2.06l-.9,2.05c-.33.67-.64,1.36-1,2.05s-.68,1.35-1,2c.59-.49,1.18-1,1.76-1.49l1.68-1.58c.54-.55,1.08-1.11,1.61-1.67s1-1.17,1.53-1.76a52.5,52.5,0,0,0,5.23-7.49,8,8,0,0,0,6.68-12,7.78,7.78,0,0,0-1-1.34s0-.07,0-.11C190.21,110.13,190.43,109.35,190.66,108.57Z"/><path class="cls-2" d="M32.13,234.45H23.42l-1.48-4.29H10.19l-1.47,4.29H0l11.22-29.81h9.65Zm-12.29-11L16,212.24l-3.79,11.22Z"/><path class="cls-2" d="M68.16,234.45H60.47v-19.4l-7.55,19.4h-3.4L42,215.05v19.4H34.32V204.64H45l6.22,16.18,6.25-16.18H68.16Z"/><path class="cls-2" d="M95.37,234.45H73.52V204.64H95.37v6.7H81.21V216H95.06v6.71H81.21v5.05H95.37Z"/><path class="cls-2" d="M125.27,234.45h-8.8l-5-10h-3.93v10H99.84V204.64h14.93a10.17,10.17,0,0,1,7.6,2.82,9.72,9.72,0,0,1,2.77,7.1,9,9,0,0,1-6,8.94Zm-11.66-16.71a4.13,4.13,0,0,0,2.63-.85,2.85,2.85,0,0,0,1.08-2.37,2.8,2.8,0,0,0-1.08-2.33,4.13,4.13,0,0,0-2.63-.85h-6.08v6.4Z"/><path class="cls-2" d="M137.07,234.45h-7.69V204.64h7.69Z"/><path class="cls-2" d="M157.05,235a16.19,16.19,0,0,1-11.53-4.32,15.74,15.74,0,0,1,0-22.23,16.26,16.26,0,0,1,11.56-4.29,13.56,13.56,0,0,1,13,8l-6.61,3.13a7.14,7.14,0,0,0-2.53-3.09,6.54,6.54,0,0,0-3.86-1.25,7.88,7.88,0,0,0-6,2.48,9.21,9.21,0,0,0,0,12.29,7.84,7.84,0,0,0,6,2.48,6.47,6.47,0,0,0,3.86-1.25,7.06,7.06,0,0,0,2.53-3.08l6.61,3.13a15.43,15.43,0,0,1-4.89,5.69A13.51,13.51,0,0,1,157.05,235Z"/><path class="cls-2" d="M202,234.45h-8.71l-1.48-4.29H180l-1.48,4.29h-8.71l11.22-29.81h9.65Zm-12.29-11-3.8-11.22-3.8,11.22Z"/><path class="cls-2" d="M231.86,234.45h-7.42l-12.6-17.25v17.25h-7.69V204.64h7.91L224.13,221v-16.4h7.73Z"/><path class="cls-2" d="M13.92,280.43q-8.7,0-13.92-5l4.28-6.07a13.63,13.63,0,0,0,10,4.14,6.24,6.24,0,0,0,3.27-.73,2.15,2.15,0,0,0,1.2-1.86q0-1-1.32-1.62a11.73,11.73,0,0,0-3.29-.94,31.54,31.54,0,0,1-4.28-1,31.17,31.17,0,0,1-4.28-1.59,8,8,0,0,1-3.29-2.94A8.77,8.77,0,0,1,1,258,9,9,0,0,1,4.35,251Q7.71,248,13.49,248a18.84,18.84,0,0,1,12.74,4.37l-4.42,5.78A14,14,0,0,0,12.65,255c-2.26,0-3.39.75-3.39,2.26,0,.59.44,1.1,1.32,1.52a11.91,11.91,0,0,0,3.29,1,34.36,34.36,0,0,1,4.25,1,29,29,0,0,1,4.26,1.62A8.21,8.21,0,0,1,27,270a9.43,9.43,0,0,1-3.44,7.64Q20.12,280.43,13.92,280.43Z"/><path class="cls-2" d="M51.43,279.87H30.75V248.51h8.08v24.3h12.6Z"/><path class="cls-2" d="M63.7,279.87H55.61V248.51H63.7Z"/><path class="cls-2" d="M104.93,279.87H96.84V259.46L88.9,279.87H85.33l-7.9-20.41v20.41H69.34V248.51H80.58l6.53,17,6.58-17h11.24Z"/><path class="cls-2" d="M130.69,279.87h-8.08V248.51h23v7.05H130.69v4.89h14.58v7.05H130.69Z"/><path class="cls-2" d="M178.22,279.87h-9.17l-1.55-4.52H155.14l-1.55,4.52h-9.17l11.8-31.36h10.15ZM165.29,268.3l-4-11.8-4,11.8Z"/><path class="cls-2" d="M192,280.43q-8.69,0-13.91-5l4.28-6.07a13.61,13.61,0,0,0,10,4.14,6.24,6.24,0,0,0,3.27-.73,2.15,2.15,0,0,0,1.2-1.86q0-1-1.32-1.62a11.73,11.73,0,0,0-3.29-.94,31.54,31.54,0,0,1-4.28-1,31.17,31.17,0,0,1-4.28-1.59,8,8,0,0,1-3.29-2.94,8.77,8.77,0,0,1-1.31-4.85,9,9,0,0,1,3.36-7.05q3.36-2.91,9.14-2.91a18.84,18.84,0,0,1,12.74,4.37l-4.42,5.78a14,14,0,0,0-9.16-3.24c-2.26,0-3.39.75-3.39,2.26,0,.59.44,1.1,1.32,1.52a11.91,11.91,0,0,0,3.29,1,34.36,34.36,0,0,1,4.25,1,29,29,0,0,1,4.26,1.62,8.18,8.18,0,0,1,4.6,7.62,9.42,9.42,0,0,1-3.43,7.64Q198.2,280.43,192,280.43Z"/><path class="cls-2" d="M223.12,279.87H215V255.56h-8.79v-7.05h25.62v7.05h-8.74Z"/></g></g></svg>