<svg xmlns="http://www.w3.org/2000/svg" viewBox="0 0 418.47 166.96"><defs><style>.cls-1{fill:#00139e;}.cls-2{fill:#fff;}.cls-3{fill:#db0000;}</style></defs><g id="Layer_2" data-name="Layer 2"><g id="Layer_1-2" data-name="Layer 1"><path class="cls-1" d="M78.66,16.19a61.7,61.7,0,0,0-17.83,8.46A58.49,58.49,0,0,0,47,38,54.06,54.06,0,0,0,42,46.11a45.45,45.45,0,0,0-3.3,8.68c2-2.31,4.08-4.51,6.23-6.54a74.61,74.61,0,0,1,6.66-5.65,69.3,69.3,0,0,1,14.56-8.42A65.21,65.21,0,0,1,81.77,29.7a62.56,62.56,0,0,1,15.81-.44,104.71,104.71,0,0,1,15.49,2.8c2.57.66,5.14,1.43,7.7,2.36a57.84,57.84,0,0,1,7.53,3.35c.61.34,1.23.67,1.83,1s1,.61,1.53.93a8.47,8.47,0,0,0-.08,1.13,8,8,0,0,0,10.59,7.56,79.54,79.54,0,0,1,5.4,6.11c.45.59.92,1.17,1.36,1.76l1.33,1.81c.41.62.85,1.24,1.28,1.86s.84,1.27,1.27,1.91c-.12-.76-.26-1.51-.4-2.27s-.35-1.5-.54-2.25-.41-1.48-.64-2.23-.5-1.46-.75-2.2a52.62,52.62,0,0,0-3.87-8.27,8,8,0,0,0-7-11.78,8.07,8.07,0,0,0-1.64.17l-.08-.09c-.55-.59-1.11-1.17-1.67-1.76s-1.16-1.14-1.75-1.71a68.22,68.22,0,0,0-7.63-6.27,54.7,54.7,0,0,0-8.68-5A49.3,49.3,0,0,0,108.57,15a52.19,52.19,0,0,0-10-1.3A63.64,63.64,0,0,0,78.66,16.19Z"/><path class="cls-2" d="M18,68.08a58.4,58.4,0,0,0,4.66,18.71,54.07,54.07,0,0,0,4.53,8.3A45.37,45.37,0,0,0,33,102.28c-1-2.91-1.87-5.79-2.56-8.66A74.78,74.78,0,0,1,28.9,85a70,70,0,0,1,0-16.81A65.57,65.57,0,0,1,32.8,52.48a62.68,62.68,0,0,1,7.52-13.92,103.37,103.37,0,0,1,10.17-12c1.86-1.9,3.81-3.74,5.9-5.49a58,58,0,0,1,6.67-4.85c.6-.35,1.19-.73,1.8-1.07s1-.58,1.57-.86a8.56,8.56,0,0,0,.94.63A8,8,0,0,0,79.21,9.52a79.19,79.19,0,0,1,8-1.62c.73-.1,1.46-.21,2.2-.29l2.23-.25,2.26-.18L96.18,7c-.72-.27-1.44-.53-2.17-.78s-1.47-.45-2.21-.66S90.3,5.21,89.55,5s-1.52-.3-2.29-.45a53,53,0,0,0-9.1-.79A8,8,0,0,0,64.44,4a8.09,8.09,0,0,0-.67,1.51l-.11,0-2.37.57c-.79.2-1.56.43-2.35.65a67.49,67.49,0,0,0-9.24,3.48,55.08,55.08,0,0,0-8.66,5,50.51,50.51,0,0,0-7.58,6.66,52,52,0,0,0-6.14,8,63.68,63.68,0,0,0-7.78,18.47A61.75,61.75,0,0,0,18,68.08Z"/><path class="cls-3" d="M6.1,99.73a63.71,63.71,0,0,0,12.11,16,61.51,61.51,0,0,0,16.24,11.2A58.44,58.44,0,0,0,53,132.23a55.37,55.37,0,0,0,9.45.23A45.35,45.35,0,0,0,71.6,131c-3-.6-5.95-1.28-8.78-2.12a72.88,72.88,0,0,1-8.23-2.95A69.39,69.39,0,0,1,40,117.51a65.23,65.23,0,0,1-11.66-11.26,62.55,62.55,0,0,1-8.29-13.47A103.12,103.12,0,0,1,14.74,78c-.71-2.56-1.33-5.17-1.8-7.85a58.58,58.58,0,0,1-.86-8.2c0-.7,0-1.4,0-2.09s0-1.2,0-1.8A8,8,0,0,0,16,46.62a7.72,7.72,0,0,0-1.67-2A80.78,80.78,0,0,1,17,36.85c.29-.68.56-1.37.85-2.06l.91-2c.33-.67.64-1.36,1-2.05s.68-1.35,1-2c-.59.48-1.18,1-1.76,1.48s-1.13,1.05-1.68,1.59-1.08,1.1-1.61,1.67-1,1.16-1.53,1.75a52.57,52.57,0,0,0-5.24,7.49A7.78,7.78,0,0,0,5.12,43.7,8,8,0,0,0,2.19,54.61a8.35,8.35,0,0,0,1,1.34l0,.11c-.25.77-.46,1.55-.69,2.33S2,60,1.83,60.76A65.54,65.54,0,0,0,.22,70.5a54.87,54.87,0,0,0,0,10,49.94,49.94,0,0,0,2,9.89A52.21,52.21,0,0,0,6.1,99.73Z"/><path class="cls-1" d="M75.68,150.77a61.52,61.52,0,0,0,17.82-8.46,58.49,58.49,0,0,0,13.87-13.39,54.06,54.06,0,0,0,4.92-8.07,45.45,45.45,0,0,0,3.3-8.68c-2,2.31-4.08,4.51-6.22,6.54a74.73,74.73,0,0,1-6.67,5.65,70,70,0,0,1-14.55,8.43,65.85,65.85,0,0,1-15.59,4.47,62.56,62.56,0,0,1-15.81.44,103,103,0,0,1-15.48-2.79c-2.58-.66-5.15-1.44-7.71-2.37A57.84,57.84,0,0,1,26,129.19c-.61-.34-1.22-.67-1.83-1s-1-.62-1.53-.94a8.35,8.35,0,0,0,.08-1.13,8,8,0,0,0-10.59-7.55,79.7,79.7,0,0,1-5.4-6.12L5.4,110.67l-1.32-1.81c-.42-.62-.86-1.24-1.29-1.86s-.84-1.27-1.27-1.91c.13.76.26,1.51.41,2.27s.34,1.5.53,2.25.42,1.48.64,2.23.5,1.46.75,2.2a53.63,53.63,0,0,0,3.87,8.28,7.88,7.88,0,0,0-1,3.78,8,8,0,0,0,8,8,8.25,8.25,0,0,0,1.65-.17l.07.09c.55.6,1.12,1.17,1.68,1.76s1.16,1.14,1.74,1.71a67.13,67.13,0,0,0,7.63,6.27,56,56,0,0,0,8.68,5A50.19,50.19,0,0,0,45.76,152a52.19,52.19,0,0,0,10,1.3A63.7,63.7,0,0,0,75.68,150.77Z"/><path class="cls-2" d="M136.37,98.88a58.08,58.08,0,0,0-4.66-18.7,53.55,53.55,0,0,0-4.52-8.3,45.55,45.55,0,0,0-5.87-7.2c1,2.91,1.86,5.79,2.55,8.66a75.17,75.17,0,0,1,1.56,8.6,69.6,69.6,0,0,1,0,16.82,65.68,65.68,0,0,1-3.92,15.73A62.61,62.61,0,0,1,114,128.4a104.31,104.31,0,0,1-10.17,12,79.15,79.15,0,0,1-5.9,5.48,58,58,0,0,1-6.67,4.85c-.59.36-1.19.73-1.79,1.07l-1.58.86a7.7,7.7,0,0,0-.94-.63A8,8,0,0,0,76.05,155a8.09,8.09,0,0,0-.93,2.47,76.86,76.86,0,0,1-8,1.62c-.73.1-1.47.21-2.21.29l-2.23.25-2.25.18-2.29.15c.72.27,1.44.53,2.17.78s1.47.45,2.21.66,1.5.39,2.25.56,1.52.3,2.29.45a53,53,0,0,0,9.1.79A8,8,0,0,0,89.89,163a7.81,7.81,0,0,0,.67-1.51l.11,0c.8-.17,1.58-.38,2.37-.57s1.57-.43,2.35-.65a67.61,67.61,0,0,0,9.25-3.48,55,55,0,0,0,8.65-5,49.48,49.48,0,0,0,7.58-6.66,51.42,51.42,0,0,0,6.14-8,63.68,63.68,0,0,0,7.78-18.47A61.73,61.73,0,0,0,136.37,98.88Z"/><path class="cls-3" d="M151.89,108.57c.22-.78.41-1.57.61-2.37a65.54,65.54,0,0,0,1.61-9.74,54.87,54.87,0,0,0,0-10,49.94,49.94,0,0,0-2-9.89,51.49,51.49,0,0,0-3.89-9.33,63.25,63.25,0,0,0-12.11-16,61.78,61.78,0,0,0-16.24-11.21,58.37,58.37,0,0,0-18.53-5.32,55.35,55.35,0,0,0-9.45-.23A45.85,45.85,0,0,0,82.74,36c3,.6,5.94,1.28,8.78,2.12a73.42,73.42,0,0,1,8.22,3,69.39,69.39,0,0,1,14.57,8.39A65.63,65.63,0,0,1,126,60.71a62.55,62.55,0,0,1,8.29,13.47A104.75,104.75,0,0,1,139.59,89c.71,2.56,1.33,5.17,1.8,7.85a58.57,58.57,0,0,1,.87,8.21c0,.69,0,1.39,0,2.08s0,1.2,0,1.8a8,8,0,0,0-3.94,11.41,7.72,7.72,0,0,0,1.67,2,75.58,75.58,0,0,1-2.59,7.74c-.28.68-.56,1.37-.85,2.06l-.91,2.05c-.32.67-.64,1.36-1,2.05s-.68,1.35-1,2c.59-.49,1.18-1,1.76-1.49s1.13-1.05,1.68-1.58,1.08-1.11,1.61-1.67,1-1.17,1.54-1.76a53.33,53.33,0,0,0,5.23-7.49,7.88,7.88,0,0,0,3.75-1.06,8,8,0,0,0,2.93-10.92,7.78,7.78,0,0,0-1-1.34l0-.11C151.45,110.13,151.66,109.35,151.89,108.57Z"/><path class="cls-2" d="M218.75,75.64H210l-1.47-4.29H196.8l-1.47,4.29h-8.72l11.22-29.81h9.65Zm-12.29-11-3.8-11.22-3.8,11.22Z"/><path class="cls-2" d="M254.77,75.64h-7.69V56.25l-7.55,19.39h-3.4l-7.51-19.39V75.64h-7.68V45.83h10.68L237.83,62l6.26-16.18h10.68Z"/><path class="cls-2" d="M282,75.64H260.13V45.83H282v6.71H267.82v4.64h13.85v6.71H267.82v5H282Z"/><path class="cls-2" d="M311.88,75.64h-8.8l-5-10h-3.93v10h-7.69V45.83h14.93a10.17,10.17,0,0,1,7.6,2.82,9.68,9.68,0,0,1,2.77,7.1A9.19,9.19,0,0,1,310,61.59a9,9,0,0,1-4.17,3.1ZM300.22,58.93a4.18,4.18,0,0,0,2.64-.85,2.87,2.87,0,0,0,1.07-2.37,2.8,2.8,0,0,0-1.07-2.32,4.12,4.12,0,0,0-2.64-.85h-6.08v6.39Z"/><path class="cls-2" d="M323.68,75.64H316V45.83h7.68Z"/><path class="cls-2" d="M343.66,76.18a16.23,16.23,0,0,1-11.53-4.31,14.54,14.54,0,0,1-4.6-11.11,14.53,14.53,0,0,1,4.58-11.13,16.22,16.22,0,0,1,11.55-4.29,13.58,13.58,0,0,1,13,8l-6.62,3.13a7.11,7.11,0,0,0-2.52-3.08,6.53,6.53,0,0,0-3.87-1.26,7.89,7.89,0,0,0-6,2.48,9.24,9.24,0,0,0,0,12.29,7.86,7.86,0,0,0,6,2.49,6.53,6.53,0,0,0,3.87-1.26,7.11,7.11,0,0,0,2.52-3.08l6.62,3.13a15.66,15.66,0,0,1-4.9,5.7A13.55,13.55,0,0,1,343.66,76.18Z"/><path class="cls-2" d="M388.58,75.64h-8.72l-1.47-4.29H366.63l-1.47,4.29h-8.72l11.22-29.81h9.65Zm-12.3-11-3.79-11.22-3.8,11.22Z"/><path class="cls-2" d="M418.47,75.64h-7.41L398.45,58.39V75.64h-7.69V45.83h7.92l12.06,16.4V45.83h7.73Z"/><path class="cls-2" d="M200.53,121.62q-8.7,0-13.92-5l4.28-6.07a13.64,13.64,0,0,0,10,4.14,6.24,6.24,0,0,0,3.27-.73,2.13,2.13,0,0,0,1.2-1.86q0-1-1.32-1.62a12,12,0,0,0-3.29-.94,31.43,31.43,0,0,1-4.27-1,30.22,30.22,0,0,1-4.28-1.59,7.77,7.77,0,0,1-3.29-2.94,8.66,8.66,0,0,1-1.32-4.84A9,9,0,0,1,191,92.14q3.36-2.91,9.15-2.91a18.88,18.88,0,0,1,12.74,4.37l-4.42,5.78a14,14,0,0,0-9.17-3.24c-2.26,0-3.39.75-3.39,2.26,0,.59.44,1.1,1.32,1.52a12.13,12.13,0,0,0,3.29,1,35.93,35.93,0,0,1,4.26,1,28.83,28.83,0,0,1,4.25,1.62,8.13,8.13,0,0,1,3.29,2.92,8.24,8.24,0,0,1,1.32,4.7,9.45,9.45,0,0,1-3.43,7.64Q206.74,121.62,200.53,121.62Z"/><path class="cls-2" d="M238,121.06H217.36V89.7h8.08V114H238Z"/><path class="cls-2" d="M250.31,121.06h-8.08V89.7h8.08Z"/><path class="cls-2" d="M291.54,121.06h-8.08V100.65l-7.95,20.41h-3.57L264,100.65v20.41H256V89.7h11.24l6.54,17,6.58-17h11.23Z"/><path class="cls-2" d="M317.31,121.06h-8.09V89.7h23v7h-14.9v4.89h14.57v7H317.31Z"/><path class="cls-2" d="M364.83,121.06h-9.16l-1.55-4.52H341.75l-1.55,4.52H331l11.8-31.36H353Zm-12.92-11.57-4-11.8-4,11.8Z"/><path class="cls-2" d="M378.61,121.62q-8.7,0-13.92-5l4.28-6.07a13.64,13.64,0,0,0,10,4.14,6.24,6.24,0,0,0,3.27-.73,2.13,2.13,0,0,0,1.2-1.86q0-1-1.32-1.62a12,12,0,0,0-3.29-.94,31.89,31.89,0,0,1-4.28-1,30.55,30.55,0,0,1-4.27-1.59A7.77,7.77,0,0,1,367,104a8.66,8.66,0,0,1-1.32-4.84A9,9,0,0,1,369,92.14q3.36-2.91,9.14-2.91a18.84,18.84,0,0,1,12.74,4.37l-4.41,5.78a14,14,0,0,0-9.17-3.24c-2.26,0-3.39.75-3.39,2.26,0,.59.44,1.1,1.32,1.52a12,12,0,0,0,3.29,1,36.4,36.4,0,0,1,4.26,1,28.83,28.83,0,0,1,4.25,1.62,8.13,8.13,0,0,1,3.29,2.92,8.24,8.24,0,0,1,1.32,4.7,9.45,9.45,0,0,1-3.43,7.64Q384.81,121.62,378.61,121.62Z"/><path class="cls-2" d="M409.73,121.06h-8.09V96.75h-8.79v-7h25.62v7h-8.74Z"/></g></g></svg>