<svg xmlns="http://www.w3.org/2000/svg" viewBox="0 0 657.56 167.99"><defs><style>.cls-1{fill:#00139e;}.cls-2{fill:#fff;}.cls-3{fill:#db0000;}</style></defs><g id="Layer_2" data-name="Layer 2"><g id="Layer_1-2" data-name="Layer 1"><path class="cls-1" d="M79.14,16.29A62.33,62.33,0,0,0,61.2,24.8a58.79,58.79,0,0,0-14,13.47,55.25,55.25,0,0,0-5,8.12A45.4,45.4,0,0,0,39,55.13c2-2.33,4.1-4.54,6.26-6.59A75.83,75.83,0,0,1,52,42.86a69.89,69.89,0,0,1,14.64-8.47,65.69,65.69,0,0,1,15.68-4.5,62.89,62.89,0,0,1,15.91-.45,104.38,104.38,0,0,1,15.58,2.81c2.59.67,5.18,1.45,7.75,2.39A57.27,57.27,0,0,1,129.09,38c.61.34,1.23.67,1.84,1l1.54.94a8.5,8.5,0,0,0-.08,1.14A8,8,0,0,0,143,48.71a78.69,78.69,0,0,1,5.44,6.16c.45.58.92,1.17,1.36,1.77l1.34,1.82c.42.63.86,1.24,1.29,1.87s.84,1.28,1.28,1.92c-.13-.76-.26-1.52-.41-2.28s-.34-1.51-.54-2.26-.42-1.5-.64-2.25-.5-1.47-.76-2.22a53.23,53.23,0,0,0-3.89-8.32,8,8,0,0,0-7.08-11.85,8.27,8.27,0,0,0-1.66.17l-.08-.08c-.54-.61-1.12-1.19-1.68-1.78s-1.17-1.15-1.75-1.72a69.11,69.11,0,0,0-7.68-6.31,55.43,55.43,0,0,0-8.74-5,50.37,50.37,0,0,0-9.61-3.26,51.82,51.82,0,0,0-10.08-1.3A63.87,63.87,0,0,0,79.14,16.29Z"/><path class="cls-2" d="M18.07,68.5a58.82,58.82,0,0,0,4.69,18.82,54.68,54.68,0,0,0,4.55,8.35,46.56,46.56,0,0,0,5.91,7.24c-1-2.93-1.88-5.82-2.57-8.72a75.26,75.26,0,0,1-1.57-8.65,70.43,70.43,0,0,1,0-16.92A66,66,0,0,1,33,52.8a63,63,0,0,1,7.57-14A104.68,104.68,0,0,1,50.8,26.71c1.87-1.91,3.84-3.76,5.94-5.52a57.55,57.55,0,0,1,6.71-4.88c.6-.36,1.19-.73,1.8-1.08l1.59-.86a8.56,8.56,0,0,0,.94.63,8,8,0,0,0,11-2.94,7.8,7.8,0,0,0,.93-2.48,78,78,0,0,1,8-1.63L90,7.65l2.24-.24c.75,0,1.51-.13,2.27-.19l2.3-.15c-.72-.27-1.45-.53-2.18-.78s-1.48-.46-2.23-.67L90.1,5.06c-.76-.16-1.53-.3-2.3-.45a53.69,53.69,0,0,0-9.16-.8,8,8,0,0,0-2.82-2.73A8,8,0,0,0,64.84,4a8.22,8.22,0,0,0-.68,1.52l-.11,0c-.8.17-1.59.38-2.38.57s-1.58.43-2.37.66A68.3,68.3,0,0,0,50,10.29a55.78,55.78,0,0,0-8.71,5.06A50.53,50.53,0,0,0,33.66,22a53.13,53.13,0,0,0-6.17,8.08,64.11,64.11,0,0,0-7.83,18.59A62.19,62.19,0,0,0,18.07,68.5Z"/><path class="cls-3" d="M6.14,100.34a63.83,63.83,0,0,0,12.18,16.08,62.1,62.1,0,0,0,16.34,11.27A58.87,58.87,0,0,0,53.3,133a55.08,55.08,0,0,0,9.51.23,46,46,0,0,0,9.23-1.5c-3-.6-6-1.28-8.84-2.13a73.61,73.61,0,0,1-8.27-3,70.32,70.32,0,0,1-14.67-8.44A66,66,0,0,1,28.53,106.9a62.66,62.66,0,0,1-8.34-13.55,104.36,104.36,0,0,1-5.36-14.9A81,81,0,0,1,13,70.55a57.81,57.81,0,0,1-.87-8.25c0-.7,0-1.4,0-2.11s0-1.2,0-1.8a8.86,8.86,0,0,0,1-.5,8.06,8.06,0,0,0,1.26-13,76.41,76.41,0,0,1,2.61-7.78c.28-.69.56-1.39.85-2.07l.91-2.07c.33-.67.65-1.37,1-2.06s.69-1.36,1-2.06q-.9.73-1.77,1.5c-.57.52-1.14,1.05-1.7,1.59S16.27,33,15.73,33.59s-1,1.17-1.54,1.77a53.08,53.08,0,0,0-5.26,7.53A8,8,0,0,0,2.21,55a8.27,8.27,0,0,0,1,1.35l0,.1c-.25.78-.46,1.56-.7,2.35S2,60.33,1.84,61.13a67.69,67.69,0,0,0-1.62,9.8A55.53,55.53,0,0,0,.24,81a51.37,51.37,0,0,0,2,10A53.12,53.12,0,0,0,6.14,100.34Z"/><path class="cls-1" d="M76.14,151.7a62.09,62.09,0,0,0,17.94-8.52,59,59,0,0,0,14-13.47,54.22,54.22,0,0,0,5-8.12,45.56,45.56,0,0,0,3.32-8.73c-2,2.33-4.11,4.53-6.26,6.58a75.57,75.57,0,0,1-6.71,5.68,70.38,70.38,0,0,1-14.64,8.48A66.15,66.15,0,0,1,73,138.1a63.37,63.37,0,0,1-15.91.45,104.41,104.41,0,0,1-15.58-2.82,80.14,80.14,0,0,1-7.75-2.38A57.27,57.27,0,0,1,26.19,130c-.61-.34-1.23-.67-1.84-1L22.81,128a8.47,8.47,0,0,0,.08-1.13,8.05,8.05,0,0,0-10.65-7.61,78.53,78.53,0,0,1-5.44-6.15c-.45-.59-.92-1.17-1.37-1.77L4.1,109.52c-.42-.62-.86-1.24-1.3-1.87s-.84-1.27-1.27-1.91c.13.76.26,1.52.41,2.28s.34,1.51.53,2.26.42,1.5.65,2.24.5,1.48.76,2.22a53.34,53.34,0,0,0,3.89,8.33,8,8,0,0,0,7.08,11.85,7.61,7.61,0,0,0,1.66-.18l.07.09c.55.6,1.12,1.18,1.69,1.77s1.16,1.15,1.75,1.73a67.93,67.93,0,0,0,7.68,6.3,55.84,55.84,0,0,0,8.73,5A50.85,50.85,0,0,0,46,152.91a52.8,52.8,0,0,0,10.09,1.3A64.16,64.16,0,0,0,76.14,151.7Z"/><path class="cls-2" d="M137.21,99.49a58.76,58.76,0,0,0-4.69-18.82A54.21,54.21,0,0,0,128,72.32a46.1,46.1,0,0,0-5.91-7.24c1,2.93,1.88,5.82,2.57,8.71a76.05,76.05,0,0,1,1.57,8.65,70.43,70.43,0,0,1,0,16.92,66.41,66.41,0,0,1-4,15.83,63,63,0,0,1-7.56,14,105.53,105.53,0,0,1-10.23,12.09c-1.87,1.91-3.84,3.76-5.94,5.52a58.74,58.74,0,0,1-6.71,4.88c-.6.35-1.19.73-1.8,1.07l-1.59.87a8.64,8.64,0,0,0-.94-.64,8.05,8.05,0,0,0-11,2.94,8.47,8.47,0,0,0-.93,2.49q-3.93,1-8,1.63l-2.22.29-2.25.25-2.26.18-2.3.15c.72.27,1.45.54,2.18.79s1.48.45,2.23.66,1.5.39,2.26.57,1.53.3,2.3.45a53.68,53.68,0,0,0,9.16.79,7.89,7.89,0,0,0,2.82,2.74,8,8,0,0,0,11-2.95,8.22,8.22,0,0,0,.68-1.52l.11,0c.8-.17,1.58-.38,2.38-.57s1.58-.44,2.37-.66a67.54,67.54,0,0,0,9.3-3.5,54.94,54.94,0,0,0,8.71-5.05,51.08,51.08,0,0,0,7.63-6.7,53.28,53.28,0,0,0,6.17-8.08,64.11,64.11,0,0,0,7.83-18.59A62.13,62.13,0,0,0,137.21,99.49Z"/><path class="cls-3" d="M152.83,109.23c.22-.78.4-1.58.61-2.38a67.69,67.69,0,0,0,1.62-9.8A55.53,55.53,0,0,0,155,87a50.56,50.56,0,0,0-2-10,52.13,52.13,0,0,0-3.91-9.39A63.78,63.78,0,0,0,137,51.57a62.47,62.47,0,0,0-16.34-11.28A58.85,58.85,0,0,0,102,35a54.1,54.1,0,0,0-9.51-.23,45.93,45.93,0,0,0-9.23,1.49c3,.6,6,1.29,8.84,2.13a76.4,76.4,0,0,1,8.27,3A70.24,70.24,0,0,1,115,49.75a66.44,66.44,0,0,1,11.74,11.33,62.9,62.9,0,0,1,8.34,13.55,104.93,104.93,0,0,1,5.36,14.91c.71,2.57,1.33,5.2,1.81,7.9a59,59,0,0,1,.87,8.25c0,.7,0,1.4,0,2.1s0,1.2,0,1.81a7,7,0,0,0-1,.5,8,8,0,0,0-2.94,11,7.8,7.8,0,0,0,1.68,2,79.13,79.13,0,0,1-2.61,7.79c-.28.68-.56,1.38-.85,2.07l-.91,2.06c-.33.68-.65,1.37-1,2.06l-1,2.06c.6-.48,1.19-1,1.77-1.49s1.14-1,1.69-1.59,1.09-1.12,1.62-1.69,1-1.17,1.55-1.76a53.91,53.91,0,0,0,5.26-7.53A8,8,0,0,0,153.07,113a7.76,7.76,0,0,0-1-1.35.49.49,0,0,0,0-.11C152.38,110.81,152.59,110,152.83,109.23Z"/><path class="cls-2" d="M220.09,99h-8.77l-1.48-4.32H198L196.53,99h-8.77L199,69h9.72ZM207.72,87.9,203.9,76.62,200.08,87.9Z"/><path class="cls-2" d="M256.33,99H248.6V79.45L241,99h-3.42L230,79.45V99h-7.74V69H233l6.25,16.28L245.58,69h10.75Z"/><path class="cls-2" d="M283.71,99h-22V69h22v6.75H269.46V80.4H283.4v6.74H269.46v5.08h14.25Z"/><path class="cls-2" d="M313.8,99h-8.86l-5-10.08H296V99h-7.74V69h15a10.22,10.22,0,0,1,7.64,2.84A9.77,9.77,0,0,1,313.66,79a9.06,9.06,0,0,1-6,9ZM302.06,82.15a4.13,4.13,0,0,0,2.65-.86,3.12,3.12,0,0,0,0-4.72,4.13,4.13,0,0,0-2.65-.85H296v6.43Z"/><path class="cls-2" d="M325.67,99h-7.74V69h7.74Z"/><path class="cls-2" d="M345.77,99.51a16.3,16.3,0,0,1-11.6-4.34A14.64,14.64,0,0,1,329.53,84a14.64,14.64,0,0,1,4.61-11.19,16.35,16.35,0,0,1,11.63-4.32,13.64,13.64,0,0,1,13.08,8l-6.65,3.15a7.16,7.16,0,0,0-2.54-3.11,6.59,6.59,0,0,0-3.89-1.26,7.94,7.94,0,0,0-6,2.5,9.28,9.28,0,0,0,0,12.37,7.94,7.94,0,0,0,6,2.49,6.59,6.59,0,0,0,3.89-1.26,7.13,7.13,0,0,0,2.54-3.1l6.65,3.15a15.56,15.56,0,0,1-4.92,5.73A13.65,13.65,0,0,1,345.77,99.51Z"/><path class="cls-2" d="M391,99h-8.77l-1.48-4.32H368.88L367.4,99h-8.77l11.28-30h9.72ZM378.59,87.9l-3.82-11.28L371,87.9Z"/><path class="cls-2" d="M421,99h-7.46L400.9,81.61V99h-7.74V69h8l12.14,16.51V69H421Z"/><path class="cls-2" d="M449.1,99.51q-8.33,0-13.31-4.77l4.09-5.8a13,13,0,0,0,9.58,4,6,6,0,0,0,3.12-.7,2.05,2.05,0,0,0,1.15-1.78c0-.63-.42-1.14-1.26-1.55a11.61,11.61,0,0,0-3.15-.9,31.38,31.38,0,0,1-4.09-.94,31.07,31.07,0,0,1-4.09-1.53A7.55,7.55,0,0,1,438,82.69a8.29,8.29,0,0,1-1.26-4.63A8.61,8.61,0,0,1,440,71.31c2.14-1.86,5.06-2.79,8.74-2.79a18,18,0,0,1,12.19,4.19l-4.23,5.53a13.39,13.39,0,0,0-8.77-3.11c-2.15,0-3.23.72-3.23,2.16,0,.57.42,1.06,1.26,1.46a11.37,11.37,0,0,0,3.14.93,34.16,34.16,0,0,1,4.07,1,28.67,28.67,0,0,1,4.07,1.55A7.78,7.78,0,0,1,460.34,85a7.92,7.92,0,0,1,1.26,4.5,9,9,0,0,1-3.28,7.31Q455,99.51,449.1,99.51Z"/><path class="cls-2" d="M485,99H465.2V69h7.73V92.22H485Z"/><path class="cls-2" d="M496.72,99H489V69h7.74Z"/><path class="cls-2" d="M536.15,99h-7.73V79.45L520.82,99H517.4l-7.55-19.52V99h-7.74V69h10.75l6.25,16.28L525.41,69h10.74Z"/><path class="cls-2" d="M560.79,99h-7.73V69h22v6.75H560.79V80.4h13.94v6.74H560.79Z"/><path class="cls-2" d="M606.25,99h-8.76L596,94.65H584.18L582.69,99h-8.77l11.29-30h9.71ZM593.89,87.9l-3.82-11.28L586.24,87.9Z"/><path class="cls-2" d="M619.43,99.51q-8.32,0-13.31-4.77l4.09-5.8a13,13,0,0,0,9.58,4,6,6,0,0,0,3.12-.7,2.05,2.05,0,0,0,1.15-1.78c0-.63-.42-1.14-1.26-1.55a11.61,11.61,0,0,0-3.15-.9,31.38,31.38,0,0,1-4.09-.94,31.07,31.07,0,0,1-4.09-1.53,7.55,7.55,0,0,1-3.15-2.81,8.29,8.29,0,0,1-1.26-4.63,8.61,8.61,0,0,1,3.22-6.75c2.14-1.86,5.06-2.79,8.74-2.79a18,18,0,0,1,12.19,4.19L627,78.24a13.39,13.39,0,0,0-8.77-3.11c-2.15,0-3.23.72-3.23,2.16,0,.57.42,1.06,1.26,1.46a11.37,11.37,0,0,0,3.14.93,34.16,34.16,0,0,1,4.07,1,28.67,28.67,0,0,1,4.07,1.55A7.78,7.78,0,0,1,630.67,85a7.92,7.92,0,0,1,1.26,4.5,9,9,0,0,1-3.28,7.31Q625.37,99.51,619.43,99.51Z"/><path class="cls-2" d="M649.2,99h-7.74V75.72h-8.41V69h24.51v6.75H649.2Z"/></g></g></svg>