<svg xmlns="http://www.w3.org/2000/svg" viewBox="0 0 66.48 71.92"><defs><style>.cls-1{fill:#00139e;}.cls-2{fill:#000b57;}.cls-3{fill:#db0000;}</style></defs><g id="Layer_2" data-name="Layer 2"><g id="Layer_1-2" data-name="Layer 1"><path class="cls-1" d="M33.88,7a27,27,0,0,0-7.68,3.65,25.2,25.2,0,0,0-6,5.77,22.53,22.53,0,0,0-2.12,3.47,19.29,19.29,0,0,0-1.42,3.74c.87-1,1.76-1.94,2.68-2.82a34.19,34.19,0,0,1,2.87-2.43,30,30,0,0,1,6.27-3.63,28,28,0,0,1,6.71-1.92A26.85,26.85,0,0,1,42,12.6a45.26,45.26,0,0,1,6.68,1.21,34,34,0,0,1,3.31,1,24,24,0,0,1,3.25,1.44l.79.44.66.41a3.73,3.73,0,0,0,0,.48A3.44,3.44,0,0,0,60.13,21a3.4,3.4,0,0,0,1.11-.18,31,31,0,0,1,2.33,2.63l.59.76.57.78.55.8c.18.27.36.55.55.82-.06-.32-.11-.65-.18-1s-.14-.65-.23-1-.18-.64-.27-1l-.33-.95a22.2,22.2,0,0,0-1.66-3.57,3.44,3.44,0,0,0-3-5.07,3.23,3.23,0,0,0-.71.07l0,0c-.23-.26-.48-.51-.72-.76s-.5-.49-.75-.74A27.81,27.81,0,0,0,54.62,10a23.42,23.42,0,0,0-3.74-2.15,20.94,20.94,0,0,0-4.11-1.39,22.52,22.52,0,0,0-4.32-.56A27.48,27.48,0,0,0,33.88,7Z"/><path class="cls-2" d="M7.74,29.33a25.31,25.31,0,0,0,2,8.06A24.12,24.12,0,0,0,11.69,41a20,20,0,0,0,2.53,3.1c-.42-1.25-.8-2.49-1.1-3.73a34.68,34.68,0,0,1-.67-3.7,30.32,30.32,0,0,1,0-7.25,28.34,28.34,0,0,1,1.69-6.77,26.9,26.9,0,0,1,3.24-6,44.69,44.69,0,0,1,4.38-5.17,33.71,33.71,0,0,1,2.54-2.37A26,26,0,0,1,27.16,7l.78-.46.68-.37a2.8,2.8,0,0,0,.4.27,3.44,3.44,0,0,0,4.7-1.26,3.26,3.26,0,0,0,.4-1.06,34.52,34.52,0,0,1,3.45-.7c.31,0,.63-.09,1-.12l1-.11,1-.08,1-.06-.93-.34-1-.28-1-.24-1-.2a24.31,24.31,0,0,0-3.92-.34A3.48,3.48,0,0,0,32.46.46a3.45,3.45,0,0,0-4.7,1.26,3.4,3.4,0,0,0-.29.65h0l-1,.25c-.34.08-.67.19-1,.28a27.74,27.74,0,0,0-4,1.5,23.17,23.17,0,0,0-3.73,2.16,21.22,21.22,0,0,0-3.27,2.87,22.76,22.76,0,0,0-2.64,3.46,27.45,27.45,0,0,0-3.35,8A26.66,26.66,0,0,0,7.74,29.33Z"/><path class="cls-3" d="M2.63,43a27.51,27.51,0,0,0,5.21,6.88,26.46,26.46,0,0,0,7,4.83,25.29,25.29,0,0,0,8,2.29,23.12,23.12,0,0,0,4.07.1,20,20,0,0,0,3.95-.64c-1.3-.26-2.56-.55-3.78-.91a36.14,36.14,0,0,1-3.54-1.27,30.32,30.32,0,0,1-6.28-3.62,28.18,28.18,0,0,1-5-4.85A26.61,26.61,0,0,1,8.64,40a46.52,46.52,0,0,1-2.29-6.38,33.87,33.87,0,0,1-.77-3.38,24.41,24.41,0,0,1-.38-3.54c0-.3,0-.6,0-.9s0-.51,0-.77a4.39,4.39,0,0,0,.44-.21,3.46,3.46,0,0,0,1.26-4.71,3.25,3.25,0,0,0-.73-.87c.31-1.12.69-2.23,1.12-3.34.12-.29.24-.59.37-.88l.39-.89c.14-.28.28-.58.41-.88s.3-.58.44-.88L8.15,13l-.72.68-.69.72c-.23.25-.44.5-.66.76a23.53,23.53,0,0,0-2.26,3.22,3.58,3.58,0,0,0-1.62.46A3.46,3.46,0,0,0,.94,23.53a4.2,4.2,0,0,0,.42.57v0c-.11.33-.2.67-.3,1s-.17.68-.26,1a29.21,29.21,0,0,0-.7,4.2,24.82,24.82,0,0,0,0,4.31A22.17,22.17,0,0,0,1,38.94,22.47,22.47,0,0,0,2.63,43Z"/><path class="cls-1" d="M32.6,65a26.36,26.36,0,0,0,7.68-3.65,25,25,0,0,0,6-5.76,23.12,23.12,0,0,0,2.12-3.48,19.29,19.29,0,0,0,1.42-3.74c-.87,1-1.75,1.94-2.68,2.82a31,31,0,0,1-2.87,2.43A30,30,0,0,1,38,57.2a28.48,28.48,0,0,1-6.71,1.93,27.29,27.29,0,0,1-6.81.19,44.89,44.89,0,0,1-6.67-1.21,31.63,31.63,0,0,1-3.32-1,24.57,24.57,0,0,1-3.25-1.44l-.78-.44c-.22-.13-.45-.26-.66-.4a3.91,3.91,0,0,0,0-.49,3.43,3.43,0,0,0-4.56-3.25,34.85,34.85,0,0,1-2.33-2.64c-.19-.25-.39-.5-.58-.76l-.57-.78-.56-.8-.55-.82.18,1c.07.32.15.64.23,1s.18.64.28,1,.21.63.32,1a23.48,23.48,0,0,0,1.67,3.56,3.34,3.34,0,0,0-.41,1.63,3.45,3.45,0,0,0,3.44,3.45,3.36,3.36,0,0,0,.71-.08l0,0,.72.76.75.74a29.64,29.64,0,0,0,3.29,2.69,23.42,23.42,0,0,0,3.74,2.15,22.13,22.13,0,0,0,4.11,1.4A21.74,21.74,0,0,0,24,66,27.15,27.15,0,0,0,32.6,65Z"/><path class="cls-2" d="M58.75,42.6a25.26,25.26,0,0,0-2-8.06,22.88,22.88,0,0,0-2-3.58,20,20,0,0,0-2.53-3.1c.43,1.26.8,2.5,1.1,3.73a31.1,31.1,0,0,1,.68,11,28.42,28.42,0,0,1-1.69,6.78,26.83,26.83,0,0,1-3.24,6,44.79,44.79,0,0,1-4.38,5.18,33.6,33.6,0,0,1-2.54,2.36,25.09,25.09,0,0,1-2.87,2.09l-.78.46-.67.37a3.62,3.62,0,0,0-.41-.27,3.44,3.44,0,0,0-4.7,1.26,3.35,3.35,0,0,0-.4,1.06,34.9,34.9,0,0,1-3.44.7l-1,.13-1,.1-1,.08-1,.06.93.34,1,.29,1,.24,1,.19a22.31,22.31,0,0,0,3.92.34A3.4,3.4,0,0,0,34,71.46a3.44,3.44,0,0,0,5-1.91h.05l1-.24,1-.29a28.93,28.93,0,0,0,4-1.49,24.1,24.1,0,0,0,3.74-2.17,22.12,22.12,0,0,0,3.26-2.86A22.61,22.61,0,0,0,54.71,59a27.29,27.29,0,0,0,3.35-8A26.4,26.4,0,0,0,58.75,42.6Z"/><path class="cls-3" d="M65.43,46.77c.1-.34.18-.68.27-1a29.2,29.2,0,0,0,.69-4.2,23.87,23.87,0,0,0,0-4.31A21.44,21.44,0,0,0,65.53,33a21.76,21.76,0,0,0-1.68-4,27,27,0,0,0-5.21-6.88,26.53,26.53,0,0,0-7-4.83,25.21,25.21,0,0,0-8-2.29,23.12,23.12,0,0,0-4.07-.1,20.1,20.1,0,0,0-4,.64c1.3.26,2.56.55,3.78.92A31.75,31.75,0,0,1,43,17.69a29.52,29.52,0,0,1,6.27,3.61,28.24,28.24,0,0,1,5,4.85A27.2,27.2,0,0,1,57.84,32a44.45,44.45,0,0,1,2.29,6.38,34.08,34.08,0,0,1,.78,3.39,24.13,24.13,0,0,1,.37,3.53c0,.3,0,.6,0,.9s0,.52,0,.77a3.61,3.61,0,0,0-.44.22,3.45,3.45,0,0,0-.54,5.58c-.31,1.11-.69,2.22-1.12,3.33-.12.29-.24.59-.37.89l-.39.88c-.14.29-.27.59-.41.88l-.44.88.76-.64.72-.68c.24-.23.47-.47.7-.72l.66-.75a22.72,22.72,0,0,0,2.25-3.23,3.44,3.44,0,0,0,2.88-5.16,3.07,3.07,0,0,0-.42-.58l0,0C65.24,47.44,65.33,47.11,65.43,46.77Z"/></g></g></svg>